# MagicaVoxel @ ephtracy

# material
mtllib lotteCastle.mtl
usemtl palette

# normals
vn -1 0 0
vn 1 0 0
vn 0 0 1
vn 0 0 -1
vn 0 -1 0
vn 0 1 0

# texcoords
vt 0.00195313 0.5
vt 0.0214844 0.5

# verts
v -15 0 11
v -15 0 -11
v -15 90 11
v -15 90 -11
v 15 0 11
v 15 0 -11
v 15 69 9
v 15 69 7
v 15 69 6
v 15 69 5
v 15 69 4
v 15 69 3
v 15 69 2
v 15 69 -0
v 15 69 -2
v 15 69 -3
v 15 69 -5
v 15 69 -7
v 15 69 -8
v 15 69 -10
v 15 70 10
v 15 70 9
v 15 70 7
v 15 70 2
v 15 70 1
v 15 70 -6
v 15 70 -7
v 15 70 -9
v 15 70 -10
v 15 71 5
v 15 71 4
v 15 71 2
v 15 71 1
v 15 71 -9
v 15 71 -10
v 15 72 5
v 15 72 4
v 15 72 1
v 15 72 -0
v 15 72 -9
v 15 72 -10
v 15 73 10
v 15 73 9
v 15 73 7
v 15 73 5
v 15 73 4
v 15 73 3
v 15 73 1
v 15 73 -0
v 15 73 -1
v 15 73 -2
v 15 73 -3
v 15 73 -4
v 15 73 -9
v 15 73 -10
v 15 74 9
v 15 74 7
v 15 74 6
v 15 74 4
v 15 74 2
v 15 74 -0
v 15 74 -1
v 15 74 -4
v 15 74 -5
v 15 74 -6
v 15 74 -8
v 15 74 -10
v 15 76 9
v 15 76 7
v 15 76 5
v 15 76 4
v 15 76 1
v 15 76 -0
v 15 76 -3
v 15 76 -4
v 15 76 -6
v 15 76 -9
v 15 77 8
v 15 77 7
v 15 77 6
v 15 77 5
v 15 77 4
v 15 77 3
v 15 77 -7
v 15 77 -9
v 15 78 -7
v 15 78 -9
v 15 79 -7
v 15 79 -9
v 15 80 6
v 15 80 5
v 15 80 4
v 15 80 3
v 15 80 2
v 15 80 1
v 15 80 -0
v 15 80 -1
v 15 80 -2
v 15 80 -3
v 15 80 -4
v 15 80 -5
v 15 80 -7
v 15 80 -9
v 15 81 9
v 15 81 8
v 15 81 5
v 15 81 4
v 15 81 2
v 15 81 -1
v 15 81 -2
v 15 81 -5
v 15 81 -6
v 15 81 -9
v 15 90 11
v 15 90 -11
v -15 0 11
v -15 90 11
v -13 6 11
v -13 10 11
v -13 12 11
v -13 16 11
v -13 18 11
v -13 22 11
v -13 24 11
v -13 28 11
v -13 30 11
v -13 34 11
v -13 36 11
v -13 40 11
v -13 42 11
v -13 46 11
v -13 48 11
v -13 52 11
v -13 54 11
v -13 58 11
v -13 60 11
v -13 64 11
v -13 66 11
v -13 70 11
v -13 72 11
v -13 76 11
v -13 78 11
v -13 82 11
v -13 84 11
v -13 88 11
v -7 6 11
v -7 10 11
v -7 12 11
v -7 16 11
v -7 18 11
v -7 22 11
v -7 24 11
v -7 28 11
v -7 30 11
v -7 34 11
v -7 36 11
v -7 40 11
v -7 42 11
v -7 46 11
v -7 48 11
v -7 52 11
v -7 54 11
v -7 58 11
v -7 60 11
v -7 64 11
v -7 66 11
v -7 70 11
v -7 72 11
v -7 76 11
v -7 78 11
v -7 82 11
v -7 84 11
v -7 88 11
v -3 6 11
v -3 10 11
v -3 12 11
v -3 16 11
v -3 18 11
v -3 22 11
v -3 24 11
v -3 28 11
v -3 30 11
v -3 34 11
v -3 36 11
v -3 40 11
v -3 42 11
v -3 46 11
v -3 48 11
v -3 52 11
v -3 54 11
v -3 58 11
v -3 60 11
v -3 64 11
v -3 66 11
v -3 70 11
v -3 72 11
v -3 76 11
v -3 78 11
v -3 82 11
v -3 84 11
v -3 88 11
v 3 6 11
v 3 10 11
v 3 12 11
v 3 16 11
v 3 18 11
v 3 22 11
v 3 24 11
v 3 28 11
v 3 30 11
v 3 34 11
v 3 36 11
v 3 40 11
v 3 42 11
v 3 46 11
v 3 48 11
v 3 52 11
v 3 54 11
v 3 58 11
v 3 60 11
v 3 64 11
v 3 66 11
v 3 70 11
v 3 72 11
v 3 76 11
v 3 78 11
v 3 82 11
v 3 84 11
v 3 88 11
v 7 6 11
v 7 10 11
v 7 12 11
v 7 16 11
v 7 18 11
v 7 22 11
v 7 24 11
v 7 28 11
v 7 30 11
v 7 34 11
v 7 36 11
v 7 40 11
v 7 42 11
v 7 46 11
v 7 48 11
v 7 52 11
v 7 54 11
v 7 58 11
v 7 60 11
v 7 64 11
v 7 66 11
v 7 70 11
v 7 72 11
v 7 76 11
v 7 78 11
v 7 82 11
v 7 84 11
v 7 88 11
v 13 6 11
v 13 10 11
v 13 12 11
v 13 16 11
v 13 18 11
v 13 22 11
v 13 24 11
v 13 28 11
v 13 30 11
v 13 34 11
v 13 36 11
v 13 40 11
v 13 42 11
v 13 46 11
v 13 48 11
v 13 52 11
v 13 54 11
v 13 58 11
v 13 60 11
v 13 64 11
v 13 66 11
v 13 70 11
v 13 72 11
v 13 76 11
v 13 78 11
v 13 82 11
v 13 84 11
v 13 88 11
v 15 0 11
v 15 90 11
v -15 0 -11
v -15 90 -11
v 15 0 -11
v 15 90 -11
v -15 0 11
v 15 0 11
v -15 0 -11
v 15 0 -11
v -15 90 11
v 15 90 11
v -15 90 -11
v 15 90 -11

# faces
f 3/1/1 2/1/1 1/1/1
f 4/1/1 2/1/1 3/1/1
f 5/1/2 6/1/2 7/1/2
f 7/1/2 6/1/2 8/1/2
f 8/1/2 6/1/2 9/1/2
f 9/1/2 6/1/2 10/1/2
f 10/1/2 6/1/2 11/1/2
f 11/1/2 6/1/2 12/1/2
f 12/1/2 6/1/2 13/1/2
f 13/1/2 6/1/2 14/1/2
f 14/1/2 6/1/2 15/1/2
f 15/1/2 6/1/2 16/1/2
f 16/1/2 6/1/2 17/1/2
f 17/1/2 6/1/2 18/1/2
f 18/1/2 6/1/2 19/1/2
f 19/1/2 6/1/2 20/1/2
f 5/1/2 7/1/2 21/1/2
f 7/2/2 8/2/2 22/2/2
f 21/1/2 7/1/2 22/1/2
f 8/1/2 9/1/2 23/1/2
f 22/2/2 8/2/2 23/2/2
f 12/1/2 13/1/2 24/1/2
f 13/2/2 14/2/2 24/2/2
f 24/2/2 14/2/2 25/2/2
f 17/2/2 18/2/2 26/2/2
f 18/1/2 19/1/2 27/1/2
f 26/2/2 18/2/2 27/2/2
f 19/2/2 20/2/2 28/2/2
f 20/1/2 6/1/2 29/1/2
f 28/2/2 20/2/2 29/2/2
f 9/2/2 10/2/2 30/2/2
f 10/1/2 11/1/2 30/1/2
f 11/2/2 12/2/2 31/2/2
f 30/1/2 11/1/2 31/1/2
f 12/1/2 24/1/2 32/1/2
f 24/1/2 25/1/2 32/1/2
f 25/2/2 14/2/2 33/2/2
f 32/1/2 25/1/2 33/1/2
f 19/2/2 28/2/2 34/2/2
f 28/1/2 29/1/2 34/1/2
f 29/1/2 6/1/2 35/1/2
f 34/1/2 29/1/2 35/1/2
f 9/2/2 30/2/2 36/2/2
f 30/2/2 31/2/2 36/2/2
f 31/2/2 12/2/2 37/2/2
f 36/2/2 31/2/2 37/2/2
f 33/2/2 14/2/2 38/2/2
f 32/2/2 33/2/2 38/2/2
f 14/1/2 15/1/2 39/1/2
f 38/2/2 14/2/2 39/2/2
f 19/2/2 34/2/2 40/2/2
f 34/2/2 35/2/2 40/2/2
f 35/1/2 6/1/2 41/1/2
f 40/2/2 35/2/2 41/2/2
f 5/1/2 21/1/2 42/1/2
f 21/2/2 22/2/2 42/2/2
f 22/1/2 23/1/2 43/1/2
f 42/2/2 22/2/2 43/2/2
f 23/1/2 9/1/2 44/1/2
f 43/1/2 23/1/2 44/1/2
f 36/1/2 37/1/2 45/1/2
f 9/2/2 36/2/2 45/2/2
f 37/2/2 12/2/2 46/2/2
f 45/1/2 37/1/2 46/1/2
f 12/1/2 32/1/2 47/1/2
f 46/2/2 12/2/2 47/2/2
f 32/2/2 38/2/2 48/2/2
f 38/1/2 39/1/2 48/1/2
f 39/1/2 15/1/2 49/1/2
f 48/1/2 39/1/2 49/1/2
f 49/1/2 15/1/2 50/1/2
f 15/2/2 16/2/2 51/2/2
f 50/1/2 15/1/2 51/1/2
f 16/1/2 17/1/2 52/1/2
f 51/2/2 16/2/2 52/2/2
f 52/1/2 17/1/2 53/1/2
f 40/1/2 41/1/2 54/1/2
f 19/2/2 40/2/2 54/2/2
f 41/1/2 6/1/2 55/1/2
f 54/1/2 41/1/2 55/1/2
f 42/1/2 43/1/2 56/1/2
f 43/2/2 44/2/2 56/2/2
f 44/1/2 9/1/2 57/1/2
f 56/2/2 44/2/2 57/2/2
f 9/2/2 45/2/2 58/2/2
f 57/1/2 9/1/2 58/1/2
f 45/2/2 46/2/2 58/2/2
f 46/1/2 47/1/2 59/1/2
f 58/2/2 46/2/2 59/2/2
f 32/2/2 48/2/2 60/2/2
f 59/1/2 47/1/2 60/1/2
f 47/1/2 32/1/2 60/1/2
f 48/2/2 49/2/2 60/2/2
f 49/1/2 50/1/2 61/1/2
f 60/2/2 49/2/2 61/2/2
f 52/2/2 53/2/2 62/2/2
f 61/1/2 50/1/2 62/1/2
f 50/2/2 51/2/2 62/2/2
f 51/2/2 52/2/2 62/2/2
f 53/1/2 17/1/2 63/1/2
f 62/2/2 53/2/2 63/2/2
f 17/2/2 26/2/2 64/2/2
f 63/1/2 17/1/2 64/1/2
f 26/1/2 27/1/2 65/1/2
f 64/2/2 26/2/2 65/2/2
f 19/2/2 54/2/2 66/2/2
f 65/1/2 27/1/2 66/1/2
f 54/2/2 55/2/2 66/2/2
f 27/1/2 19/1/2 66/1/2
f 55/1/2 6/1/2 67/1/2
f 66/2/2 55/2/2 67/2/2
f 56/1/2 57/1/2 68/1/2
f 64/1/2 65/1/2 68/1/2
f 66/1/2 67/1/2 68/1/2
f 62/1/2 63/1/2 68/1/2
f 57/1/2 58/1/2 68/1/2
f 59/1/2 60/1/2 68/1/2
f 63/1/2 64/1/2 68/1/2
f 61/1/2 62/1/2 68/1/2
f 65/1/2 66/1/2 68/1/2
f 60/1/2 61/1/2 68/1/2
f 42/1/2 56/1/2 68/1/2
f 58/1/2 59/1/2 68/1/2
f 68/1/2 67/1/2 69/1/2
f 69/1/2 67/1/2 70/1/2
f 70/1/2 67/1/2 71/1/2
f 71/1/2 67/1/2 72/1/2
f 72/1/2 67/1/2 73/1/2
f 73/1/2 67/1/2 74/1/2
f 74/1/2 67/1/2 75/1/2
f 75/1/2 67/1/2 76/1/2
f 76/1/2 67/1/2 77/1/2
f 68/2/2 69/2/2 78/2/2
f 69/1/2 70/1/2 79/1/2
f 78/2/2 69/2/2 79/2/2
f 79/1/2 70/1/2 80/1/2
f 70/2/2 71/2/2 81/2/2
f 80/1/2 70/1/2 81/1/2
f 71/1/2 72/1/2 82/1/2
f 81/2/2 71/2/2 82/2/2
f 82/1/2 72/1/2 83/1/2
f 76/2/2 77/2/2 84/2/2
f 77/1/2 67/1/2 85/1/2
f 84/2/2 77/2/2 85/2/2
f 76/2/2 84/2/2 86/2/2
f 84/1/2 85/1/2 86/1/2
f 85/1/2 67/1/2 87/1/2
f 86/1/2 85/1/2 87/1/2
f 76/2/2 86/2/2 88/2/2
f 86/2/2 87/2/2 88/2/2
f 87/1/2 67/1/2 89/1/2
f 88/2/2 87/2/2 89/2/2
f 79/1/2 80/1/2 90/1/2
f 80/2/2 81/2/2 90/2/2
f 78/1/2 79/1/2 90/1/2
f 81/1/2 82/1/2 91/1/2
f 90/2/2 81/2/2 91/2/2
f 82/2/2 83/2/2 92/2/2
f 91/1/2 82/1/2 92/1/2
f 83/1/2 72/1/2 93/1/2
f 92/2/2 83/2/2 93/2/2
f 93/1/2 72/1/2 94/1/2
f 72/2/2 73/2/2 95/2/2
f 94/1/2 72/1/2 95/1/2
f 73/1/2 74/1/2 96/1/2
f 95/2/2 73/2/2 96/2/2
f 96/1/2 74/1/2 97/1/2
f 97/1/2 74/1/2 98/1/2
f 74/2/2 75/2/2 99/2/2
f 98/1/2 74/1/2 99/1/2
f 75/1/2 76/1/2 100/1/2
f 99/2/2 75/2/2 100/2/2
f 100/1/2 76/1/2 101/1/2
f 76/2/2 88/2/2 102/2/2
f 88/1/2 89/1/2 102/1/2
f 89/1/2 67/1/2 103/1/2
f 102/1/2 89/1/2 103/1/2
f 42/1/2 68/1/2 104/1/2
f 68/2/2 78/2/2 104/2/2
f 90/1/2 91/1/2 105/1/2
f 104/2/2 78/2/2 105/2/2
f 78/1/2 90/1/2 105/1/2
f 91/2/2 92/2/2 106/2/2
f 105/1/2 91/1/2 106/1/2
f 93/1/2 94/1/2 107/1/2
f 106/2/2 92/2/2 107/2/2
f 92/1/2 93/1/2 107/1/2
f 94/2/2 95/2/2 108/2/2
f 107/1/2 94/1/2 108/1/2
f 96/2/2 97/2/2 108/2/2
f 95/2/2 96/2/2 108/2/2
f 97/1/2 98/1/2 109/1/2
f 108/2/2 97/2/2 109/2/2
f 100/2/2 101/2/2 110/2/2
f 109/1/2 98/1/2 110/1/2
f 98/2/2 99/2/2 110/2/2
f 99/2/2 100/2/2 110/2/2
f 101/1/2 76/1/2 111/1/2
f 110/2/2 101/2/2 111/2/2
f 102/2/2 103/2/2 112/2/2
f 111/1/2 76/1/2 112/1/2
f 76/2/2 102/2/2 112/2/2
f 103/1/2 67/1/2 113/1/2
f 112/2/2 103/2/2 113/2/2
f 5/1/2 42/1/2 114/1/2
f 111/1/2 112/1/2 114/1/2
f 112/1/2 113/1/2 114/1/2
f 42/1/2 104/1/2 114/1/2
f 107/1/2 108/1/2 114/1/2
f 106/1/2 107/1/2 114/1/2
f 105/1/2 106/1/2 114/1/2
f 108/1/2 109/1/2 114/1/2
f 104/1/2 105/1/2 114/1/2
f 110/1/2 111/1/2 114/1/2
f 109/1/2 110/1/2 114/1/2
f 67/1/2 6/1/2 115/1/2
f 114/1/2 113/1/2 115/1/2
f 113/1/2 67/1/2 115/1/2
f 118/1/3 117/1/3 116/1/3
f 119/1/3 117/1/3 118/1/3
f 120/1/3 117/1/3 119/1/3
f 121/1/3 117/1/3 120/1/3
f 122/1/3 117/1/3 121/1/3
f 123/1/3 117/1/3 122/1/3
f 124/1/3 117/1/3 123/1/3
f 125/1/3 117/1/3 124/1/3
f 126/1/3 117/1/3 125/1/3
f 127/1/3 117/1/3 126/1/3
f 128/1/3 117/1/3 127/1/3
f 129/1/3 117/1/3 128/1/3
f 130/1/3 117/1/3 129/1/3
f 131/1/3 117/1/3 130/1/3
f 132/1/3 117/1/3 131/1/3
f 133/1/3 117/1/3 132/1/3
f 134/1/3 117/1/3 133/1/3
f 135/1/3 117/1/3 134/1/3
f 136/1/3 117/1/3 135/1/3
f 137/1/3 117/1/3 136/1/3
f 138/1/3 117/1/3 137/1/3
f 139/1/3 117/1/3 138/1/3
f 140/1/3 117/1/3 139/1/3
f 141/1/3 117/1/3 140/1/3
f 142/1/3 117/1/3 141/1/3
f 143/1/3 117/1/3 142/1/3
f 144/1/3 117/1/3 143/1/3
f 145/1/3 117/1/3 144/1/3
f 146/1/3 118/1/3 116/1/3
f 146/2/3 119/2/3 118/2/3
f 147/1/3 120/1/3 119/1/3
f 147/2/3 119/2/3 146/2/3
f 148/2/3 121/2/3 120/2/3
f 148/1/3 120/1/3 147/1/3
f 149/1/3 122/1/3 121/1/3
f 149/2/3 121/2/3 148/2/3
f 150/2/3 123/2/3 122/2/3
f 150/1/3 122/1/3 149/1/3
f 151/1/3 124/1/3 123/1/3
f 151/2/3 123/2/3 150/2/3
f 152/2/3 125/2/3 124/2/3
f 152/1/3 124/1/3 151/1/3
f 153/1/3 126/1/3 125/1/3
f 153/2/3 125/2/3 152/2/3
f 154/2/3 127/2/3 126/2/3
f 154/1/3 126/1/3 153/1/3
f 155/1/3 128/1/3 127/1/3
f 155/2/3 127/2/3 154/2/3
f 156/2/3 129/2/3 128/2/3
f 156/1/3 128/1/3 155/1/3
f 157/1/3 130/1/3 129/1/3
f 157/2/3 129/2/3 156/2/3
f 158/2/3 131/2/3 130/2/3
f 158/1/3 130/1/3 157/1/3
f 159/1/3 132/1/3 131/1/3
f 159/2/3 131/2/3 158/2/3
f 160/2/3 133/2/3 132/2/3
f 160/1/3 132/1/3 159/1/3
f 161/1/3 134/1/3 133/1/3
f 161/2/3 133/2/3 160/2/3
f 162/2/3 135/2/3 134/2/3
f 162/1/3 134/1/3 161/1/3
f 163/1/3 136/1/3 135/1/3
f 163/2/3 135/2/3 162/2/3
f 164/2/3 137/2/3 136/2/3
f 164/1/3 136/1/3 163/1/3
f 165/1/3 138/1/3 137/1/3
f 165/2/3 137/2/3 164/2/3
f 166/2/3 139/2/3 138/2/3
f 166/1/3 138/1/3 165/1/3
f 167/1/3 140/1/3 139/1/3
f 167/2/3 139/2/3 166/2/3
f 168/2/3 141/2/3 140/2/3
f 168/1/3 140/1/3 167/1/3
f 169/1/3 142/1/3 141/1/3
f 169/2/3 141/2/3 168/2/3
f 170/2/3 143/2/3 142/2/3
f 170/1/3 142/1/3 169/1/3
f 171/1/3 144/1/3 143/1/3
f 171/2/3 143/2/3 170/2/3
f 172/2/3 145/2/3 144/2/3
f 172/1/3 144/1/3 171/1/3
f 173/1/3 117/1/3 145/1/3
f 173/2/3 145/2/3 172/2/3
f 174/1/3 172/1/3 171/1/3
f 174/1/3 171/1/3 170/1/3
f 174/1/3 173/1/3 172/1/3
f 174/1/3 170/1/3 169/1/3
f 174/1/3 169/1/3 168/1/3
f 174/1/3 168/1/3 167/1/3
f 174/1/3 167/1/3 166/1/3
f 174/1/3 166/1/3 165/1/3
f 174/1/3 165/1/3 164/1/3
f 174/1/3 164/1/3 163/1/3
f 174/1/3 163/1/3 162/1/3
f 174/1/3 162/1/3 161/1/3
f 174/1/3 161/1/3 160/1/3
f 174/1/3 160/1/3 159/1/3
f 174/1/3 159/1/3 158/1/3
f 174/1/3 158/1/3 157/1/3
f 174/1/3 157/1/3 156/1/3
f 174/1/3 156/1/3 155/1/3
f 174/1/3 155/1/3 154/1/3
f 174/1/3 154/1/3 153/1/3
f 174/1/3 153/1/3 152/1/3
f 174/1/3 152/1/3 151/1/3
f 174/1/3 151/1/3 150/1/3
f 174/1/3 150/1/3 149/1/3
f 174/1/3 149/1/3 148/1/3
f 174/1/3 148/1/3 147/1/3
f 174/1/3 147/1/3 146/1/3
f 174/1/3 146/1/3 116/1/3
f 175/1/3 173/1/3 174/1/3
f 176/1/3 173/1/3 175/1/3
f 177/1/3 173/1/3 176/1/3
f 178/1/3 173/1/3 177/1/3
f 179/1/3 173/1/3 178/1/3
f 180/1/3 173/1/3 179/1/3
f 181/1/3 173/1/3 180/1/3
f 182/1/3 173/1/3 181/1/3
f 183/1/3 173/1/3 182/1/3
f 184/1/3 173/1/3 183/1/3
f 185/1/3 173/1/3 184/1/3
f 186/1/3 173/1/3 185/1/3
f 187/1/3 173/1/3 186/1/3
f 188/1/3 173/1/3 187/1/3
f 189/1/3 173/1/3 188/1/3
f 190/1/3 173/1/3 189/1/3
f 191/1/3 173/1/3 190/1/3
f 192/1/3 173/1/3 191/1/3
f 193/1/3 173/1/3 192/1/3
f 194/1/3 173/1/3 193/1/3
f 195/1/3 173/1/3 194/1/3
f 196/1/3 173/1/3 195/1/3
f 197/1/3 173/1/3 196/1/3
f 198/1/3 173/1/3 197/1/3
f 199/1/3 173/1/3 198/1/3
f 200/1/3 173/1/3 199/1/3
f 201/1/3 117/1/3 173/1/3
f 201/1/3 173/1/3 200/1/3
f 202/1/3 174/1/3 116/1/3
f 202/2/3 175/2/3 174/2/3
f 203/1/3 176/1/3 175/1/3
f 203/2/3 175/2/3 202/2/3
f 204/2/3 177/2/3 176/2/3
f 204/1/3 176/1/3 203/1/3
f 205/1/3 178/1/3 177/1/3
f 205/2/3 177/2/3 204/2/3
f 206/2/3 179/2/3 178/2/3
f 206/1/3 178/1/3 205/1/3
f 207/1/3 180/1/3 179/1/3
f 207/2/3 179/2/3 206/2/3
f 208/2/3 181/2/3 180/2/3
f 208/1/3 180/1/3 207/1/3
f 209/1/3 182/1/3 181/1/3
f 209/2/3 181/2/3 208/2/3
f 210/2/3 183/2/3 182/2/3
f 210/1/3 182/1/3 209/1/3
f 211/1/3 184/1/3 183/1/3
f 211/2/3 183/2/3 210/2/3
f 212/2/3 185/2/3 184/2/3
f 212/1/3 184/1/3 211/1/3
f 213/1/3 186/1/3 185/1/3
f 213/2/3 185/2/3 212/2/3
f 214/2/3 187/2/3 186/2/3
f 214/1/3 186/1/3 213/1/3
f 215/1/3 188/1/3 187/1/3
f 215/2/3 187/2/3 214/2/3
f 216/2/3 189/2/3 188/2/3
f 216/1/3 188/1/3 215/1/3
f 217/1/3 190/1/3 189/1/3
f 217/2/3 189/2/3 216/2/3
f 218/2/3 191/2/3 190/2/3
f 218/1/3 190/1/3 217/1/3
f 219/1/3 192/1/3 191/1/3
f 219/2/3 191/2/3 218/2/3
f 220/2/3 193/2/3 192/2/3
f 220/1/3 192/1/3 219/1/3
f 221/1/3 194/1/3 193/1/3
f 221/2/3 193/2/3 220/2/3
f 222/2/3 195/2/3 194/2/3
f 222/1/3 194/1/3 221/1/3
f 223/1/3 196/1/3 195/1/3
f 223/2/3 195/2/3 222/2/3
f 224/2/3 197/2/3 196/2/3
f 224/1/3 196/1/3 223/1/3
f 225/1/3 198/1/3 197/1/3
f 225/2/3 197/2/3 224/2/3
f 226/2/3 199/2/3 198/2/3
f 226/1/3 198/1/3 225/1/3
f 227/1/3 200/1/3 199/1/3
f 227/2/3 199/2/3 226/2/3
f 228/2/3 201/2/3 200/2/3
f 228/1/3 200/1/3 227/1/3
f 229/1/3 117/1/3 201/1/3
f 229/2/3 201/2/3 228/2/3
f 230/1/3 226/1/3 225/1/3
f 230/1/3 228/1/3 227/1/3
f 230/1/3 229/1/3 228/1/3
f 230/1/3 225/1/3 224/1/3
f 230/1/3 224/1/3 223/1/3
f 230/1/3 223/1/3 222/1/3
f 230/1/3 222/1/3 221/1/3
f 230/1/3 221/1/3 220/1/3
f 230/1/3 220/1/3 219/1/3
f 230/1/3 219/1/3 218/1/3
f 230/1/3 218/1/3 217/1/3
f 230/1/3 217/1/3 216/1/3
f 230/1/3 216/1/3 215/1/3
f 230/1/3 215/1/3 214/1/3
f 230/1/3 214/1/3 213/1/3
f 230/1/3 213/1/3 212/1/3
f 230/1/3 212/1/3 211/1/3
f 230/1/3 211/1/3 210/1/3
f 230/1/3 210/1/3 209/1/3
f 230/1/3 209/1/3 208/1/3
f 230/1/3 208/1/3 207/1/3
f 230/1/3 207/1/3 206/1/3
f 230/1/3 206/1/3 205/1/3
f 230/1/3 205/1/3 204/1/3
f 230/1/3 204/1/3 203/1/3
f 230/1/3 203/1/3 202/1/3
f 230/1/3 202/1/3 116/1/3
f 230/1/3 227/1/3 226/1/3
f 231/1/3 229/1/3 230/1/3
f 232/1/3 229/1/3 231/1/3
f 233/1/3 229/1/3 232/1/3
f 234/1/3 229/1/3 233/1/3
f 235/1/3 229/1/3 234/1/3
f 236/1/3 229/1/3 235/1/3
f 237/1/3 229/1/3 236/1/3
f 238/1/3 229/1/3 237/1/3
f 239/1/3 229/1/3 238/1/3
f 240/1/3 229/1/3 239/1/3
f 241/1/3 229/1/3 240/1/3
f 242/1/3 229/1/3 241/1/3
f 243/1/3 229/1/3 242/1/3
f 244/1/3 229/1/3 243/1/3
f 245/1/3 229/1/3 244/1/3
f 246/1/3 229/1/3 245/1/3
f 247/1/3 229/1/3 246/1/3
f 248/1/3 229/1/3 247/1/3
f 249/1/3 229/1/3 248/1/3
f 250/1/3 229/1/3 249/1/3
f 251/1/3 229/1/3 250/1/3
f 252/1/3 229/1/3 251/1/3
f 253/1/3 229/1/3 252/1/3
f 254/1/3 229/1/3 253/1/3
f 255/1/3 229/1/3 254/1/3
f 256/1/3 229/1/3 255/1/3
f 257/1/3 117/1/3 229/1/3
f 257/1/3 229/1/3 256/1/3
f 258/1/3 230/1/3 116/1/3
f 258/2/3 231/2/3 230/2/3
f 259/1/3 232/1/3 231/1/3
f 259/2/3 231/2/3 258/2/3
f 260/2/3 233/2/3 232/2/3
f 260/1/3 232/1/3 259/1/3
f 261/1/3 234/1/3 233/1/3
f 261/2/3 233/2/3 260/2/3
f 262/2/3 235/2/3 234/2/3
f 262/1/3 234/1/3 261/1/3
f 263/1/3 236/1/3 235/1/3
f 263/2/3 235/2/3 262/2/3
f 264/2/3 237/2/3 236/2/3
f 264/1/3 236/1/3 263/1/3
f 265/1/3 238/1/3 237/1/3
f 265/2/3 237/2/3 264/2/3
f 266/2/3 239/2/3 238/2/3
f 266/1/3 238/1/3 265/1/3
f 267/1/3 240/1/3 239/1/3
f 267/2/3 239/2/3 266/2/3
f 268/2/3 241/2/3 240/2/3
f 268/1/3 240/1/3 267/1/3
f 269/1/3 242/1/3 241/1/3
f 269/2/3 241/2/3 268/2/3
f 270/2/3 243/2/3 242/2/3
f 270/1/3 242/1/3 269/1/3
f 271/1/3 244/1/3 243/1/3
f 271/2/3 243/2/3 270/2/3
f 272/2/3 245/2/3 244/2/3
f 272/1/3 244/1/3 271/1/3
f 273/1/3 246/1/3 245/1/3
f 273/2/3 245/2/3 272/2/3
f 274/2/3 247/2/3 246/2/3
f 274/1/3 246/1/3 273/1/3
f 275/1/3 248/1/3 247/1/3
f 275/2/3 247/2/3 274/2/3
f 276/2/3 249/2/3 248/2/3
f 276/1/3 248/1/3 275/1/3
f 277/1/3 250/1/3 249/1/3
f 277/2/3 249/2/3 276/2/3
f 278/2/3 251/2/3 250/2/3
f 278/1/3 250/1/3 277/1/3
f 279/1/3 252/1/3 251/1/3
f 279/2/3 251/2/3 278/2/3
f 280/2/3 253/2/3 252/2/3
f 280/1/3 252/1/3 279/1/3
f 281/1/3 254/1/3 253/1/3
f 281/2/3 253/2/3 280/2/3
f 282/2/3 255/2/3 254/2/3
f 282/1/3 254/1/3 281/1/3
f 283/1/3 256/1/3 255/1/3
f 283/2/3 255/2/3 282/2/3
f 284/2/3 257/2/3 256/2/3
f 284/1/3 256/1/3 283/1/3
f 285/1/3 117/1/3 257/1/3
f 285/2/3 257/2/3 284/2/3
f 286/1/3 282/1/3 281/1/3
f 286/1/3 284/1/3 283/1/3
f 286/1/3 285/1/3 284/1/3
f 286/1/3 281/1/3 280/1/3
f 286/1/3 280/1/3 279/1/3
f 286/1/3 279/1/3 278/1/3
f 286/1/3 278/1/3 277/1/3
f 286/1/3 277/1/3 276/1/3
f 286/1/3 276/1/3 275/1/3
f 286/1/3 275/1/3 274/1/3
f 286/1/3 274/1/3 273/1/3
f 286/1/3 273/1/3 272/1/3
f 286/1/3 272/1/3 271/1/3
f 286/1/3 271/1/3 270/1/3
f 286/1/3 270/1/3 269/1/3
f 286/1/3 269/1/3 268/1/3
f 286/1/3 268/1/3 267/1/3
f 286/1/3 267/1/3 266/1/3
f 286/1/3 266/1/3 265/1/3
f 286/1/3 265/1/3 264/1/3
f 286/1/3 264/1/3 263/1/3
f 286/1/3 263/1/3 262/1/3
f 286/1/3 262/1/3 261/1/3
f 286/1/3 261/1/3 260/1/3
f 286/1/3 260/1/3 259/1/3
f 286/1/3 259/1/3 258/1/3
f 286/1/3 258/1/3 116/1/3
f 286/1/3 283/1/3 282/1/3
f 287/1/3 117/1/3 285/1/3
f 287/1/3 285/1/3 286/1/3
f 288/1/4 289/1/4 290/1/4
f 290/1/4 289/1/4 291/1/4
f 294/1/5 293/1/5 292/1/5
f 295/1/5 293/1/5 294/1/5
f 296/1/6 297/1/6 298/1/6
f 298/1/6 297/1/6 299/1/6
